<svg version="1.1" id="Layer_1" xmlns="http://www.w3.org/2000/svg" xmlns:xlink="http://www.w3.org/1999/xlink" x="0px" y="0px"
	 width="100%" viewBox="0 0 1024 1024" enable-background="new 0 0 1024 1024" xml:space="preserve">
<path fill="#ffffff" opacity="1.000000" stroke="none" 
	d="
M354.082001,112.684891 
	C375.418976,110.878487 394.920380,114.998077 412.932556,125.900208 
	C429.849762,136.139572 442.957214,150.040024 452.983673,166.972961 
	C453.735870,168.243301 454.529724,169.488937 455.952362,171.798096 
	C466.265564,135.749588 487.857605,111.509422 523.804443,101.830444 
	C547.491516,95.452507 569.996948,99.309265 591.151794,111.436859 
	C614.856079,125.025986 629.946899,145.268463 635.907593,171.818207 
	C641.838806,198.236481 635.487915,222.519089 619.689819,246.046112 
	C627.409302,244.521744 633.753479,243.829910 640.106079,243.271805 
	C647.497070,242.622513 654.804321,243.030792 661.913391,244.663879 
	C676.056335,247.912766 678.941223,256.565338 679.014099,269.747955 
	C679.102112,285.669250 676.608459,301.314880 666.191956,314.449127 
	C665.905762,314.810059 665.847595,315.351868 665.540161,316.206757 
	C670.440613,319.487854 676.224792,320.454712 681.676392,322.127228 
	C691.736816,325.213684 691.778320,325.078186 696.444885,315.915436 
	C702.013916,304.980713 716.884949,297.509308 728.098572,299.365509 
	C740.249023,301.376770 746.567932,312.097778 745.666626,323.956665 
	C744.499268,339.315918 735.803406,350.023529 723.660217,358.502747 
	C720.014099,361.048676 715.909973,362.993286 712.587708,366.423401 
	C714.102905,368.770569 716.527222,368.988861 718.615662,369.698608 
	C728.074463,372.913055 737.557617,376.055847 747.023499,379.249329 
	C748.441833,379.727814 749.850647,380.264069 751.203247,380.901947 
	C755.159180,382.767426 757.265564,385.803864 755.827515,390.169891 
	C754.373413,394.584656 750.467224,395.618408 746.495483,394.941864 
	C742.931091,394.334717 739.532532,392.735992 736.071472,391.543671 
	C727.103210,388.454224 718.172241,385.252655 709.165527,382.280060 
	C702.771118,380.169647 701.155457,380.994293 697.621948,387.517761 
	C700.825989,390.457977 705.047607,391.695709 708.809143,393.677155 
	C717.059814,398.023346 725.633423,401.793121 733.387634,407.016663 
	C736.240662,408.938629 738.508911,411.652283 736.161560,415.455536 
	C733.931946,419.068085 730.754333,420.226135 726.732788,418.531342 
	C725.505737,418.014221 724.293945,417.456116 723.098328,416.869659 
	C712.931030,411.882507 702.653015,407.103180 692.652283,401.801239 
	C687.324463,398.976715 683.579102,399.508392 678.938782,403.637299 
	C659.142151,421.252167 636.248413,433.668579 611.258850,442.311829 
	C607.057617,443.764893 602.864197,445.240387 598.231323,446.857697 
	C601.581299,452.987549 606.544922,457.036743 610.665344,461.676300 
	C629.910583,483.346161 649.365601,504.832123 668.920959,526.223511 
	C681.109314,539.556335 693.956604,552.118408 711.243103,558.957764 
	C718.974854,562.016785 726.560242,565.364075 733.910828,569.365906 
	C757.428284,582.169189 758.729065,617.110535 738.501160,631.357422 
	C735.123901,633.736084 735.389099,635.999695 737.196350,639.314331 
	C756.424072,674.580444 777.439392,708.797729 798.057007,743.245850 
	C825.520386,789.131714 853.157898,834.913269 880.715210,880.742859 
	C881.659241,882.312927 882.586670,883.895935 883.449951,885.511353 
	C886.503052,891.224670 885.865173,895.197266 881.452026,898.215332 
	C876.413330,901.661255 871.064026,901.235596 867.152100,896.698547 
	C861.787231,890.476379 858.263245,883.023682 854.025696,876.063049 
	C819.634033,819.571228 785.461548,762.945740 750.977661,706.510498 
	C736.907104,683.483154 722.210205,660.838989 707.859558,637.981995 
	C705.980896,634.989807 704.239197,633.586487 700.721069,636.008301 
	C686.361450,645.893005 667.645630,638.229126 661.462708,622.230957 
	C660.328857,619.297241 659.106262,616.215820 658.920837,613.142456 
	C658.674011,609.050842 656.926208,606.721680 653.295044,605.228821 
	C650.064514,603.900635 646.992676,602.192017 643.808044,600.745239 
	C638.927979,598.528198 637.438477,599.312256 637.371765,604.723755 
	C637.266602,613.252441 635.984497,621.599670 634.322083,629.922729 
	C626.503662,669.067749 606.978760,700.310608 572.574219,721.540405 
	C565.925354,725.643188 566.015808,725.649780 569.785645,732.451599 
	C583.726196,757.604248 594.260010,784.202393 603.199158,811.473022 
	C603.813660,813.347717 604.077332,815.381165 606.104126,817.574036 
	C609.680054,814.571716 613.288757,811.547546 616.891418,808.516113 
	C626.201477,800.682251 635.427917,792.724548 647.069458,788.385254 
	C663.772522,782.159363 685.422058,787.694275 695.250671,800.705627 
	C702.088501,809.757690 702.270325,818.216431 695.515625,827.311035 
	C688.994507,836.090942 680.532532,842.932312 672.040466,849.637512 
	C650.805298,866.404724 628.661865,881.756287 603.580505,892.405701 
	C594.478271,896.270386 585.100891,899.038879 575.267212,900.103027 
	C564.272400,901.292847 558.277466,897.988037 553.810303,887.877808 
	C546.604614,871.569702 539.336975,855.301819 530.678589,839.693115 
	C519.167542,818.941711 506.020782,799.338135 490.102081,781.673645 
	C488.989868,780.439514 487.755585,779.309509 486.521729,778.193298 
	C485.924744,777.653076 485.196991,777.257446 484.208008,776.575439 
	C477.927094,782.630737 472.055603,788.955322 465.398560,794.480347 
	C449.883148,807.357422 432.334686,816.192749 413.099915,821.897888 
	C406.584351,823.830444 404.702576,829.297302 408.438477,834.989624 
	C409.691406,836.898682 411.498505,836.659912 413.294525,836.820740 
	C424.516724,837.825256 435.283569,840.379150 445.191193,846.002686 
	C456.373230,852.349670 462.860352,861.966797 465.039856,874.505554 
	C467.465271,888.459290 459.548553,898.852173 445.373657,899.108215 
	C421.216187,899.544739 397.044434,899.368591 372.880737,899.182434 
	C365.126831,899.122742 360.144562,894.056580 356.094971,888.030151 
	C349.676727,878.478882 343.928619,868.538025 338.714966,858.275940 
	C330.101440,841.321899 322.170685,824.091187 317.346558,805.615051 
	C316.259155,801.450439 315.488556,797.168701 314.991150,792.892151 
	C314.197296,786.066467 317.552887,780.954651 324.243378,777.911438 
	C334.143250,773.408447 344.745514,771.030823 355.038788,767.733337 
	C374.136230,761.615356 391.109680,752.294922 404.149780,736.653748 
	C407.688354,732.409302 410.656219,727.810242 413.384125,723.020508 
	C414.754639,720.614014 414.552673,718.802490 412.441162,716.893677 
	C407.752563,712.655029 402.807007,708.699097 398.630463,703.888062 
	C396.067139,700.935242 393.878052,703.159058 391.884827,705.008240 
	C378.772980,717.172546 363.941895,726.699280 347.073822,732.596375 
	C312.986481,744.513367 280.425354,742.653625 251.337372,719.311523 
	C233.556458,705.043030 223.542435,685.680542 217.859695,663.802429 
	C211.648468,639.889709 213.443008,615.986328 217.082993,592.010864 
	C220.149353,571.813782 225.377609,551.857544 226.389404,531.461548 
	C227.759171,503.849457 220.104172,479.674103 194.744415,464.271454 
	C189.276047,460.950165 183.129852,459.303253 177.108185,457.369781 
	C175.366241,456.810394 173.550064,456.462433 171.842880,455.818756 
	C168.321899,454.491211 165.415924,452.256439 166.013641,448.143341 
	C166.661423,443.685638 170.374435,442.570709 174.276123,442.512054 
	C182.507614,442.388336 190.566544,443.639557 198.243469,446.630768 
	C228.671326,458.486420 243.824860,481.880707 248.293915,513.265808 
	C251.267380,534.147827 247.979843,554.711121 244.951599,575.257263 
	C241.869431,596.169128 239.150452,617.125977 240.372925,638.293457 
	C241.456711,657.059387 246.074448,674.861816 258.672333,689.556641 
	C273.335480,706.660400 292.446533,712.630066 314.291687,710.156128 
	C340.295013,707.211304 360.527771,693.513489 377.868774,674.755554 
	C380.157166,672.280151 380.767334,670.042175 379.623291,666.725159 
	C375.281616,654.137268 373.961090,641.084473 374.805328,627.847839 
	C375.089813,623.387146 373.423950,620.798462 369.528870,618.764099 
	C358.386292,612.944580 350.638641,604.164185 347.400513,591.796204 
	C346.738281,589.266846 345.206421,587.493835 343.406281,585.662354 
	C331.293488,573.338440 320.813690,559.782776 313.981049,543.788208 
	C303.128815,518.383972 309.495361,496.249573 327.672760,476.781494 
	C347.917145,455.099731 372.911774,440.260437 399.506042,427.858063 
	C407.019226,424.354248 414.684631,421.176819 423.187592,417.452240 
	C398.902283,388.412354 384.383545,356.495972 388.675415,318.407990 
	C386.024506,317.155457 384.077026,318.542267 382.031921,318.872833 
	C354.763306,323.280334 329.046539,319.483124 306.590668,302.606445 
	C274.903534,278.792023 259.702637,246.630646 262.989258,207.085541 
	C266.900970,160.018692 300.315796,124.166443 342.782043,114.220749 
	C346.319275,113.392319 349.899292,112.467598 354.082001,112.684891 
M536.774963,807.772949 
	C543.081360,817.591187 548.755188,827.767517 554.122742,838.125610 
	C559.645813,848.783752 564.381653,859.795898 569.211731,870.772583 
	C572.267883,877.717957 575.433716,879.240723 582.752869,877.315002 
	C587.086975,876.174500 591.410400,874.781189 595.503174,872.969604 
	C624.126404,860.299683 649.260437,842.399353 672.208252,821.292053 
	C674.497742,819.186279 677.276001,816.966614 676.267944,813.301147 
	C675.203491,809.430603 671.775818,808.231873 668.293579,807.328918 
	C658.207947,804.713562 650.030945,809.291443 642.339600,814.698547 
	C634.018799,820.548157 626.686951,827.649719 619.282227,834.608948 
	C615.765381,837.914124 612.517090,841.503906 609.124390,844.942322 
	C601.994324,852.168274 594.294922,850.730469 590.464478,841.449585 
	C589.830444,839.913391 589.246887,838.344055 588.797424,836.745789 
	C583.293152,817.170410 576.638428,798.002075 568.772156,779.245300 
	C558.819702,755.514282 547.187805,732.715271 531.786926,711.994080 
	C527.517090,706.249207 522.946899,700.727356 518.689270,694.973877 
	C516.487061,691.998047 514.663635,688.719482 516.442322,684.795166 
	C518.033447,681.284546 521.004639,679.326355 524.639893,679.015076 
	C529.222534,678.622742 532.328735,681.832214 535.321960,684.697021 
	C541.112427,690.239136 546.014221,696.582886 551.036804,702.804016 
	C553.271545,705.572021 555.436768,706.209961 558.725403,704.168762 
	C584.972839,687.877808 602.591797,665.244568 610.045898,635.036682 
	C615.590088,612.568787 615.203552,590.036682 611.889282,567.232056 
	C606.278809,528.627930 593.220093,492.466156 577.491272,457.079895 
	C576.258484,454.306335 574.394104,452.901337 571.270630,453.275177 
	C565.502136,453.965607 559.736145,454.725067 553.947632,455.185760 
	C548.742249,455.600067 544.496826,452.709259 543.069641,448.207123 
	C541.657166,443.751495 543.529175,438.757965 547.732666,436.051147 
	C549.552002,434.879639 551.517578,434.048615 553.681091,433.559052 
	C565.037292,430.989197 576.436646,428.570038 587.697449,425.625824 
	C626.836792,415.392639 659.869629,395.149139 686.384827,364.520538 
	C692.794250,357.116821 689.215698,346.521515 679.772766,343.800232 
	C675.299622,342.511200 670.829651,341.151672 666.480469,339.501801 
	C639.395386,329.227081 611.789612,320.008514 592.399414,296.270538 
	C586.821350,289.441711 575.834045,293.003326 573.793091,301.565155 
	C573.138977,304.309326 572.765991,307.119446 572.220947,309.890808 
	C568.275269,329.952728 558.969849,346.369781 540.517029,356.599365 
	C528.115601,363.474274 514.645996,365.017609 500.842194,364.213959 
	C478.601410,362.919098 460.907227,353.557434 449.351990,333.966736 
	C445.333099,327.153076 442.821869,319.746124 441.707489,311.932098 
	C441.050812,307.327637 439.446503,304.510437 434.066925,305.200134 
	C428.797119,305.875732 423.449219,305.919800 418.159363,306.469543 
	C414.912079,306.807037 412.992279,308.526764 412.084900,312.037964 
	C409.706757,321.240417 409.682098,330.569275 410.675385,339.805176 
	C412.768494,359.268066 420.016571,376.803375 432.056274,392.300201 
	C444.746429,408.634155 459.716064,421.987091 479.650757,428.937653 
	C482.619568,429.972748 485.590179,431.220184 488.249695,432.869629 
	C491.571259,434.929688 493.383667,438.280365 492.926514,442.207123 
	C492.454163,446.264435 490.056213,449.281036 486.201752,450.873749 
	C483.264404,452.087463 480.351379,451.390411 477.410736,450.572754 
	C466.253326,447.470306 455.947662,442.428589 445.905609,436.805634 
	C443.553680,435.488739 441.471069,435.142670 438.839417,436.134735 
	C423.402008,441.953766 408.087158,448.037079 393.548462,455.902344 
	C376.049683,465.368988 359.246338,475.884369 345.432800,490.414581 
	C333.570648,502.892273 327.225464,516.986694 334.182770,534.476440 
	C337.616608,543.108643 342.678223,550.641724 348.438568,557.822449 
	C351.034790,561.058838 353.045654,561.094482 355.243286,557.499146 
	C359.201324,551.023621 365.070496,546.731812 371.775696,543.462097 
	C377.318359,540.759277 378.778564,540.579895 374.691956,534.426331 
	C374.147705,533.606750 373.866852,532.611145 373.472565,531.693298 
	C368.669952,520.514771 370.516052,514.941711 381.201416,509.136169 
	C393.249664,502.590149 406.106262,497.977814 419.116364,493.804016 
	C424.647369,492.029663 430.263824,490.476532 435.916046,489.138123 
	C441.379211,487.844513 445.773926,490.356689 447.449463,495.279968 
	C449.052765,499.990967 446.782623,504.553589 441.589874,506.922638 
	C439.925293,507.682098 438.239075,508.470367 436.480560,508.933472 
	C431.090027,510.353027 428.183044,513.944885 426.579559,519.123108 
	C424.113037,527.088440 420.929871,534.805237 417.066986,542.189209 
	C415.394562,545.386169 415.597443,547.582275 418.392792,549.941650 
	C424.005005,554.678467 427.714203,560.847229 430.036377,567.704651 
	C431.069366,570.755188 432.838928,571.872192 435.672028,572.379211 
	C454.255890,575.705200 466.230286,587.256470 473.461487,603.934814 
	C480.073364,619.184814 479.025330,633.931091 467.635803,646.842285 
	C457.513153,658.317383 443.346344,660.299377 429.297943,662.140259 
	C427.304413,662.401489 425.035339,661.441833 423.043518,660.664062 
	C417.743805,658.594421 412.775574,655.904663 408.480591,652.085327 
	C405.061676,649.044983 401.591705,646.062134 397.904785,642.844604 
	C397.559662,643.848022 397.306213,644.280579 397.280182,644.726379 
	C397.231842,645.553955 397.213806,646.407776 397.360809,647.218506 
	C399.548889,659.285461 403.272339,670.723511 410.468323,680.881042 
	C421.416870,696.335510 435.647034,708.349487 450.785736,719.332397 
	C484.380615,743.704895 514.358215,771.542786 536.774963,807.772949 
M286.410492,223.014252 
	C287.144196,227.604660 287.560608,232.272598 288.660492,236.773529 
	C300.247589,284.189453 351.156403,311.096161 395.003906,290.582489 
	C401.729889,287.435822 408.494507,284.015442 416.237640,283.697754 
	C420.717072,283.513977 425.183990,283.000641 429.652985,282.596039 
	C432.763184,282.314453 434.807526,280.860901 435.768433,277.670807 
	C437.624634,271.508453 442.164948,267.677338 447.716095,264.919617 
	C452.047058,262.768036 456.556305,261.074280 461.221405,259.748840 
	C475.013092,255.830338 489.050018,253.614151 503.345673,252.355179 
	C524.399292,250.501083 544.370728,253.246338 561.914612,265.591125 
	C569.747559,271.102814 576.560181,266.980988 583.891357,266.691620 
	C583.819214,263.927063 582.661926,262.663330 581.578796,261.428375 
	C563.399963,240.701874 540.519714,229.544662 512.992004,228.330719 
	C493.392365,227.466400 475.023163,232.006546 458.094635,242.096283 
	C453.476166,244.849014 448.655121,245.531281 443.985474,242.297379 
	C439.315369,239.063156 439.184875,234.122040 439.923645,229.226013 
	C441.945953,215.823669 441.147705,202.675201 436.677979,189.856323 
	C425.039124,156.476761 396.347626,135.394897 360.201385,135.586441 
	C341.639648,135.684799 325.232208,143.358688 311.598328,156.164780 
	C292.575226,174.032883 285.752808,196.674149 286.410492,223.014252 
M573.776672,128.706131 
	C560.837280,123.404251 547.505432,121.846619 533.690002,124.274330 
	C496.495972,130.810226 471.940369,166.694550 479.245056,203.768539 
	C479.868896,206.934753 481.157135,208.143982 484.317200,207.366730 
	C491.831299,205.518570 499.499390,205.723328 507.156982,205.698898 
	C539.595276,205.595383 567.698364,216.511307 591.393982,238.704025 
	C592.107544,239.372269 592.767273,240.209702 593.943237,239.986801 
	C624.788879,210.971161 622.899536,151.774246 573.776672,128.706131 
M391.605103,851.724426 
	C387.074860,840.540588 384.220703,828.952942 383.774933,816.879517 
	C383.494293,809.279419 385.470490,807.236572 392.842590,805.671936 
	C420.615204,799.777405 444.917694,787.568481 464.207336,766.272583 
	C468.300812,761.753418 468.408264,761.262695 463.753479,757.290222 
	C455.377045,750.141418 446.142151,744.146118 437.243561,737.695801 
	C433.771271,735.178772 431.781799,735.319885 429.264435,739.024231 
	C420.575012,751.811218 409.990143,762.734131 396.997833,771.343628 
	C381.752106,781.446350 364.755829,787.013062 347.325775,791.711060 
	C338.830933,794.000732 337.259857,796.390686 339.607178,804.665283 
	C346.637054,829.446289 358.781799,851.760254 373.434326,872.784668 
	C375.861572,876.267395 379.195129,877.920532 383.677582,877.821350 
	C393.669312,877.600159 403.669769,877.790466 413.666687,877.783447 
	C421.664185,877.777893 429.663910,877.831726 437.658325,877.658691 
	C442.268524,877.558899 443.582031,875.263245 441.679352,871.108398 
	C439.532227,866.419617 435.602325,863.654541 431.013367,861.822632 
	C424.006226,859.025391 416.610474,858.074341 409.152161,857.156677 
	C403.274506,856.433411 396.580994,857.973755 391.605103,851.724426 
M634.091736,559.738098 
	C633.964478,566.707153 637.072327,571.505554 643.144836,575.065308 
	C651.062805,579.706909 659.174744,583.930359 667.576782,587.539368 
	C674.464478,590.497864 678.676941,594.658264 677.340454,602.758789 
	C676.992737,604.866333 677.141052,607.091858 677.317261,609.242249 
	C677.724976,614.218567 679.234802,618.719849 683.603638,621.709778 
	C686.213074,623.495667 689.008667,624.684204 691.832703,622.275818 
	C694.372742,620.109619 695.002258,617.332825 693.730896,614.160950 
	C692.308960,610.613831 690.729248,607.107422 690.244995,603.263367 
	C689.657410,598.598633 691.069885,594.689392 695.029053,592.021729 
	C701.332275,587.774597 707.061340,589.058716 711.163330,595.582458 
	C715.061035,601.781189 717.672302,608.697510 721.923096,614.721436 
	C724.142273,617.866272 726.312012,617.637024 728.214844,614.900635 
	C731.422791,610.287415 733.038086,605.184448 732.155945,599.393555 
	C730.722961,589.987244 723.796875,585.800476 716.133789,582.547852 
	C709.250793,579.626343 702.010620,577.546387 695.128357,574.623413 
	C676.661804,566.780151 663.415466,552.337708 650.036560,538.166931 
	C640.360291,527.917847 630.957825,517.410217 621.433228,507.017914 
	C626.273621,524.302795 630.604614,541.473877 634.091736,559.738098 
M401.038574,557.353455 
	C395.490051,554.679016 389.859680,553.605408 383.647583,555.127075 
	C373.550079,557.600647 364.974457,565.666504 363.433258,575.670227 
	C361.687286,587.002869 365.516449,596.499573 374.914551,603.159058 
	C384.061890,609.640808 394.014648,609.744019 403.660248,604.405640 
	C417.227448,596.896912 422.668793,570.102600 401.038574,557.353455 
M425.119629,603.510681 
	C420.815887,612.526001 412.195160,616.804504 403.880768,621.741577 
	C408.992035,628.047974 413.193176,634.062866 418.691101,638.946045 
	C421.679565,641.600342 424.929077,644.012939 428.809326,645.231750 
	C433.311066,646.645630 435.390350,645.021118 434.607300,640.426575 
	C434.026123,637.016174 432.864624,633.677734 431.694611,630.402649 
	C430.682648,627.569946 431.042328,625.232666 433.139648,623.086548 
	C436.912445,619.225952 442.794373,620.398071 446.017456,625.993652 
	C447.973694,629.389954 449.377472,633.104431 450.996460,636.604675 
	C454.485107,636.121704 454.868134,633.546753 455.533112,631.451721 
	C459.738098,618.204529 450.992279,600.168396 437.470642,594.004700 
	C431.522980,591.293518 431.012787,591.520691 428.278229,597.577942 
	C427.459167,599.392273 426.398743,601.097595 425.119629,603.510681 
M401.572754,529.066223 
	C401.475220,527.015015 403.402252,525.108521 401.973267,522.760742 
	C398.356079,523.192017 395.071228,524.200195 392.516449,527.178101 
	C394.379425,530.314819 396.170135,533.143066 399.114624,535.035095 
	C399.574005,534.482910 399.871490,534.265747 399.973236,533.979126 
	C400.465912,532.591736 400.905945,531.185791 401.572754,529.066223 
z"/>
<path fill="#ffffff" opacity="1.000000" stroke="none" 
	d="
M510.179932,399.838013 
	C506.422089,396.880035 504.433838,393.588531 506.862274,389.265930 
	C508.838867,385.747620 512.849976,385.191315 517.846924,387.755005 
	C530.056396,394.019073 543.140625,396.750458 556.693054,397.691498 
	C562.207092,398.074432 565.457458,401.166290 565.274170,405.934875 
	C565.087585,410.790558 562.265137,413.385468 556.529602,413.249298 
	C540.057922,412.858215 524.862427,407.848541 510.179932,399.838013 
z"/>
<path fill="#ffffff" opacity="1.000000" stroke="none" 
	d="
M402.742493,586.988403 
	C385.740417,592.623230 385.034454,592.318359 377.221527,576.720947 
	C376.333740,574.948547 375.269196,573.253174 374.165558,571.603088 
	C372.505585,569.121155 371.971375,566.660339 374.424011,564.460388 
	C377.010223,562.140503 379.858551,562.724548 382.015656,564.912354 
	C384.202240,567.130127 386.368500,569.653442 387.610107,572.456482 
	C390.026520,577.911499 394.080902,578.611084 399.033997,577.325684 
	C401.503296,576.684753 403.593719,576.768738 405.450623,578.638916 
	C408.213043,581.421082 407.552368,583.743774 402.742493,586.988403 
z"/>
</svg>